demo_forces.mot
version=1
nRows=43
nColumns=19
inDegrees=yes
endheader

time	ground_force_vx	ground_force_vy	ground_force_vz	ground_force_px	ground_force_py	ground_force_pz	1_ground_force_vx	1_ground_force_vy	1_ground_force_vz	1_ground_force_px	1_ground_force_py	1_ground_force_pz	ground_torque_x	ground_torque_y	ground_torque_z	1_ground_torque_x	1_ground_torque_y	1_ground_torque_z
0.728	-47.18	303.71	14.500000000000018	-0.5305342303261971	1.0431494222177308e-17	-0.1703592289538599	0.0	0.0	0.0	0.0	0.0	0.0	0.0	0.3526372414562632	2.1592803450479348e-17	0.0	0.0	0.0
0.7285	-48.26	306.49	14.52000000000002	-0.532229601746383	1.0466500685734693e-17	-0.1709309278891244	0.0	0.0	0.0	0.0	0.0	0.0	0.0	0.3545252486830116	2.170841055082956e-17	0.0	0.0	0.0
0.729	-48.62	306.49	14.52000000000002	-0.533891785908752	1.0500854628757562e-17	-0.17149197035535682	0.0	0.0	0.0	0.0	0.0	0.0	0.0	0.35639058124211703	2.182262922822223e-17	0.0	0.0	0.0
0.7295	-48.61	307.89	13.81000000000002	-0.5355209840998034	1.053455936238091e-17	-0.17204241042749535	0.0	0.0	0.0	0.0	0.0	0.0	0.0	0.35823315430735636	2.1935454288549233e-17	0.0	0.0	0.0
0.73	-48.96	310.67	14.190000000000019	-0.5371174042770324	1.0567618333845929e-17	-0.172582304403261	0.0	0.0	0.0	0.0	0.0	0.0	0.0	0.3600528960655356	2.2046881334520665e-17	0.0	0.0	0.0
0.7305	-48.95	313.46	13.84000000000002	-0.5386812608277083	1.0600035122350626e-17	-0.1731117107353931	0.0	0.0	0.0	0.0	0.0	0.0	0.0	0.36184975788089463	2.2156907388055126e-17	0.0	0.0	0.0
0.731	-49.68	314.85	14.200000000000019	-0.540212774293521	1.0631813434406969e-17	-0.17363068995582584	0.0	0.0	0.0	0.0	0.0	0.0	0.0	0.36362371121825643	2.2265530701876954e-17	0.0	0.0	0.0
0.7315	-50.75	317.64	14.58000000000002	-0.5417121710691927	1.066295709984445e-17	-0.17413930461042118	0.0	0.0	0.0	0.0	0.0	0.0	0.0	0.36537473818731814	2.2372750180521045e-17	0.0	0.0	0.0
0.732	-51.1	319.03	14.23000000000002	-0.5431796831031225	1.0693470068821954e-17	-0.1746376192101694	0.0	0.0	0.0	0.0	0.0	0.0	0.0	0.3671028275763378	2.2478565137466196e-17	0.0	0.0	0.0
0.7325	-51.1	317.63	14.23000000000002	-0.5446155476480113	1.072335640883762e-17	-0.17512570018235626	0.0	0.0	0.0	0.0	0.0	0.0	0.0	0.3688079803388244	2.2582975631097995e-17	0.0	0.0	0.0
0.733	-51.1	319.02	14.60000000000002	-0.5460200070955272	1.0752620300595863e-17	-0.1756036158030661	0.0	0.0	0.0	0.0	0.0	0.0	0.0	0.3704902178862689	2.2685982972492147e-17	0.0	0.0	0.0
0.7335	-51.1	321.82	14.60000000000002	-0.5473933088420325	1.0781266033103073e-17	-0.17607143611708895	0.0	0.0	0.0	0.0	0.0	0.0	0.0	0.37214958151302246	2.278758969019839e-17	0.0	0.0	0.0
0.734	-51.82	321.81	14.97000000000002	-0.5487357050949901	1.0809297999494222e-17	-0.17652923286976346	0.0	0.0	0.0	0.0	0.0	0.0	0.0	0.37378612080323886	2.2887798820370488e-17	0.0	0.0	0.0
0.7345	-52.89	324.59	14.26000000000002	-0.5500474526282225	1.0836720694174457e-17	-0.17697707946029592	0.0	0.0	0.0	0.0	0.0	0.0	0.0	0.37539988335519936	2.2986613277562582e-17	0.0	0.0	0.0
0.735	-52.88	325.99	13.90000000000002	-0.5513288125369706	1.086353871005269e-17	-0.17741505089658105	0.0	0.0	0.0	0.0	0.0	0.0	0.0	0.3769909193236895	2.308403613286955e-17	0.0	0.0	0.0
0.7355	-52.88	325.98	14.27000000000002	-0.5525800499941372	1.088975673457647e-17	-0.17784322373044684	0.0	0.0	0.0	0.0	0.0	0.0	0.0	0.37855929551644496	2.3180071477085375e-17	0.0	0.0	0.0
0.736	-53.6	327.36	14.64000000000002	-0.5538014340397237	1.0915379545258565e-17	-0.17826167598459766	0.0	0.0	0.0	0.0	0.0	0.0	0.0	0.3801050988932334	2.3274724634960107e-17	0.0	0.0	0.0
0.7365	-53.24	328.77	14.280000000000019	-0.5549932374358545	1.0940412006182814e-17	-0.17867048709555106	0.0	0.0	0.0	0.0	0.0	0.0	0.0	0.38162842456846974	2.3368001430571938e-17	0.0	0.0	0.0
0.737	-53.6	328.77	14.280000000000019	-0.5561557365254147	1.0964859065387256e-17	-0.17906973787090052	0.0	0.0	0.0	0.0	0.0	0.0	0.0	0.3831293645379247	2.345990749703718e-17	0.0	0.0	0.0
0.7375	-54.67	331.55	13.940000000000019	-0.5572892110418669	1.0988725752292775e-17	-0.1794595104473223	0.0	0.0	0.0	0.0	0.0	0.0	0.0	0.38460800882937	2.355044834696696e-17	0.0	0.0	0.0
0.738	-55.03	331.53	13.940000000000019	-0.5583939438994882	1.1012017174712805e-17	-0.17983988824174013	0.0	0.0	0.0	0.0	0.0	0.0	0.0	0.38606445413410173	2.3639629900995577e-17	0.0	0.0	0.0
0.7385	-54.31	331.54	13.940000000000019	-0.5594702210070797	1.1034738514897445e-17	-0.18021095588672081	0.0	0.0	0.0	0.0	0.0	0.0	0.0	0.38749880784007357	2.3727458734738732e-17	0.0	0.0	0.0
0.739	-54.66	332.93	13.950000000000019	-0.5605183311140273	1.1056895025060727e-17	-0.18057279915742883	0.0	0.0	0.0	0.0	0.0	0.0	0.0	0.3889111814799097	2.381394167759998e-17	0.0	0.0	0.0
0.7395	-54.66	332.93	13.950000000000019	-0.5615385656699765	1.107849202346302e-17	-0.18092550490764722	0.0	0.0	0.0	0.0	0.0	0.0	0.0	0.39030168072462773	2.3899085200063e-17	0.0	0.0	0.0
0.74	-55.02	334.32	13.230000000000022	-0.5625312186877479	1.1099534891043125e-17	-0.18126916101477547	0.0	0.0	0.0	0.0	0.0	0.0	0.0	0.3916704024472229	2.3982895233887964e-17	0.0	0.0	0.0
0.7405	-55.37	334.31	12.87000000000002	-0.5634965865947006	1.112002906850754e-17	-0.18160385633229367	0.0	0.0	0.0	0.0	0.0	0.0	0.0	0.39301743987175913	2.4065377487402455e-17	0.0	0.0	0.0
0.741	-56.08	337.09	12.890000000000022	-0.5644349680554603	1.113998005366365e-17	-0.18192968064621007	0.0	0.0	0.0	0.0	0.0	0.0	0.0	0.3943428901578698	2.414653790991816e-17	0.0	0.0	0.0
0.7415	-55.37	335.7	13.240000000000022	-0.5653466637941478	1.1159393397995916e-17	-0.18224672461914626	0.0	0.0	0.0	0.0	0.0	0.0	0.0	0.39564685752196493	2.422638288284974e-17	0.0	0.0	0.0
0.742	-55.37	335.7	12.880000000000022	-0.5662319764526028	1.117827470283231e-17	-0.18255507972772997	0.0	0.0	0.0	0.0	0.0	0.0	0.0	0.39692944877816067	2.4304918946675455e-17	0.0	0.0	0.0
0.7425	-56.44	337.08	12.53000000000002	-0.5670912104816497	1.119662961677208e-17	-0.18285483822058757	0.0	0.0	0.0	0.0	0.0	0.0	0.0	0.39819076770370465	2.4382152455919015e-17	0.0	0.0	0.0
0.743	-56.08	338.48	12.170000000000021	-0.5679246720333249	1.1214463834364514e-17	-0.18314609309676647	0.0	0.0	0.0	0.0	0.0	0.0	0.0	0.3994309146804667	2.4458089557197194e-17	0.0	0.0	0.0
0.7435	-55.35	337.09	11.810000000000022	-0.5687326688260963	1.1231783094337142e-17	-0.18342893807679958	0.0	0.0	0.0	0.0	0.0	0.0	0.0	0.40064998804043	2.453273627160742e-17	0.0	0.0	0.0
0.744	-55.71	338.48	11.45000000000002	-0.5695155099976328	1.1248593176870156e-17	-0.18370346755819308	0.0	0.0	0.0	0.0	0.0	0.0	0.0	0.40184808157903257	2.4606098342463835e-17	0.0	0.0	0.0
0.7445	-56.78	342.66	11.470000000000022	-0.5702735059598416	1.1264899900679747e-17	-0.18396977656779387	0.0	0.0	0.0	0.0	0.0	0.0	0.0	0.40302528069149396	2.4678180998715565e-17	0.0	0.0	0.0
0.745	-55.34	339.88	11.100000000000021	-0.5710069682361713	1.1280709119711535e-17	-0.18422796070778902	0.0	0.0	0.0	0.0	0.0	0.0	0.0	0.4041816645144507	2.4748989086084034e-17	0.0	0.0	0.0
0.7455	-54.97	339.87	10.020000000000021	-0.5717162093052855	1.129602671929839e-17	-0.18447811609295828	0.0	0.0	0.0	0.0	0.0	0.0	0.0	0.40531731269487076	2.4818527481539474e-17	0.0	0.0	0.0
0.746	-56.75	344.02	9.320000000000022	-0.5724015424942354	1.131085861292224e-17	-0.18472033929779041	0.0	0.0	0.0	0.0	0.0	0.0	0.0	0.4064323066603366	2.4886801171083285e-17	0.0	0.0	0.0
0.7465	-57.11	344.02	8.960000000000022	-0.5730632818944159	1.1325210739956004e-17	-0.18495472731960613	0.0	0.0	0.0	0.0	0.0	0.0	0.0	0.4075267259799905	2.4953815026920234e-17	0.0	0.0	0.0
0.747	-56.04	341.24	8.94000000000002	-0.573701742271704	1.1339089063635965e-17	-0.18518137754544456	0.0	0.0	0.0	0.0	0.0	0.0	0.0	0.4086006488675073	2.501957383825665e-17	0.0	0.0	0.0
0.7475	-56.03	345.43	8.960000000000022	-0.5743172389673443	1.1352499568824131e-17	-0.18540038771551956	0.0	0.0	0.0	0.0	0.0	0.0	0.0	0.4096541548420318	2.5084082474235837e-17	0.0	0.0	0.0
0.748	-57.1	348.2	8.62000000000002	-0.5749100877675258	1.1365448259545326e-17	-0.18561185588299767	0.0	0.0	0.0	0.0	0.0	0.0	0.0	0.41068732238892297	2.5147345740699982e-17	0.0	0.0	0.0
0.7485	-57.82	346.79	8.980000000000022	-0.5754806047685987	1.137794115647706e-17	-0.1858158803730043	0.0	0.0	0.0	0.0	0.0	0.0	0.0	0.41170022233917125	2.5209367974796373e-17	0.0	0.0	0.0
0.749	-57.1	346.8	8.62000000000002	-0.5760291063042554	1.1389984294318903e-17	-0.18601255973966271	0.0	0.0	0.0	0.0	0.0	0.0	0.0	0.41269291147012493	2.5270152653134898e-17	0.0	0.0	0.0
